<?xml version="1.0" encoding="utf-8"?>
<!-- Generator: Adobe Illustrator 17.0.0, SVG Export Plug-In . SVG Version: 6.00 Build 0)  -->
<!DOCTYPE svg PUBLIC "-//W3C//DTD SVG 1.1//EN" "http://www.w3.org/Graphics/SVG/1.1/DTD/svg11.dtd">
<svg version="1.1" id="Layer_1" xmlns="http://www.w3.org/2000/svg" xmlns:xlink="http://www.w3.org/1999/xlink" x="0px" y="0px"
	 width="174px" height="50px" viewBox="0 0 174 50" enable-background="new 0 0 174 50" xml:space="preserve">
<text transform="matrix(1 0 0 1 59.317 40.1172)" display="none" enable-background="new    " font-family="'Medel-Regular'" font-size="45" letter-spacing="-1">Stellar</text>
<g>
	<path id="logo" fill="#F26724" d="M24.67,5.8c10.587,0,19.2,8.613,19.2,19.2s-8.613,19.2-19.2,19.2S5.47,35.587,5.47,25
		S14.083,5.8,24.67,5.8z M24.67,1c-13.256,0-24,10.745-24,24c0,13.254,10.744,24,24,24s24-10.746,24-24
		C48.67,11.745,37.926,1,24.67,1z M24.67,15.4c5.295,0,9.6,4.307,9.6,9.6c0,5.295-4.305,9.6-9.6,9.6s-9.6-4.305-9.6-9.6
		C15.07,19.707,19.375,15.4,24.67,15.4z M24.67,10.6c-7.955,0-14.4,6.446-14.4,14.4c0,7.955,6.445,14.4,14.4,14.4
		s14.4-6.445,14.4-14.4C39.07,17.046,32.625,10.6,24.67,10.6z M24.67,20.2c-2.653,0-4.8,2.149-4.8,4.8s2.147,4.8,4.8,4.8
		s4.8-2.149,4.8-4.8S27.323,20.2,24.67,20.2z"/>
	<path fill="#FFFFFF" d="M84.097,28.35c0.42,1.065,0.63,2.018,0.63,2.857c0,1.861-0.458,3.488-1.373,4.883
		c-0.916,1.395-2.168,2.468-3.758,3.218c-1.59,0.75-3.375,1.125-5.355,1.125c-1.95,0-3.743-0.428-5.377-1.283
		c-1.635-0.854-2.955-1.964-3.96-3.329c-1.005-1.365-1.583-2.798-1.732-4.299c0.299-0.09,0.615-0.135,0.945-0.135
		c0.63,0,1.23,0.174,1.8,0.518c0.569,0.346,1.02,0.803,1.35,1.373c0.72,1.23,1.71,2.213,2.97,2.947
		c1.26,0.735,2.595,1.103,4.005,1.103c1.95,0,3.623-0.495,5.018-1.485s2.093-2.399,2.093-4.229c0-1.649-0.57-2.917-1.71-3.803
		c-1.141-0.884-2.446-1.478-3.915-1.777l-4.185-0.855c-0.9-0.18-1.823-0.487-2.768-0.922c-0.945-0.435-1.793-1.013-2.542-1.733
		c-1.47-1.379-2.205-3.195-2.205-5.445c0-1.739,0.457-3.27,1.373-4.59c0.915-1.32,2.138-2.347,3.667-3.083
		c1.53-0.735,3.165-1.103,4.905-1.103c2.13,0,3.938,0.375,5.423,1.125c1.485,0.75,2.625,1.703,3.42,2.857
		c0.794,1.155,1.312,2.348,1.552,3.578l-0.225,0.045c-0.36,0.061-0.646,0.09-0.855,0.09c-0.601,0-1.155-0.127-1.665-0.382
		c-0.511-0.254-0.93-0.623-1.26-1.103c-1.53-2.13-3.66-3.195-6.39-3.195c-0.27,0-0.705,0.03-1.305,0.09
		c-1.47,0.15-2.73,0.75-3.78,1.8c-1.05,1.051-1.575,2.311-1.575,3.78c0,1.2,0.382,2.243,1.147,3.127
		c0.765,0.885,1.913,1.478,3.442,1.777l4.005,0.765c1.26,0.24,2.392,0.57,3.397,0.99c1.005,0.421,1.913,1.006,2.723,1.755
		C82.987,26.303,83.676,27.285,84.097,28.35z M95.841,21.262c0.78,0,1.44-0.27,1.98-0.81s0.81-1.185,0.81-1.935h-5.444v-3.105
		c0-0.87-0.301-1.604-0.9-2.205c-0.601-0.6-1.335-0.9-2.205-0.9v6.21h-3.96v2.745h3.96v13.14c0,3.811,2.025,5.715,6.075,5.715
		c0.359,0,0.779-0.029,1.26-0.09c0.479-0.06,0.885-0.135,1.215-0.226v-2.609c-0.48,0.09-1.125,0.135-1.935,0.135
		c-2.34,0-3.51-1.005-3.51-3.015v-13.05C93.187,21.262,95.841,21.262,95.841,21.262z M116.518,19.35
		c-1.515-0.945-3.353-1.417-5.513-1.417c-1.95,0-3.72,0.511-5.31,1.53c-1.591,1.02-2.843,2.378-3.758,4.072
		c-0.915,1.695-1.372,3.518-1.372,5.467c0,2.041,0.473,3.908,1.417,5.603c0.945,1.695,2.25,3.038,3.915,4.027
		c1.665,0.99,3.518,1.485,5.558,1.485c1.92,0,3.675-0.45,5.266-1.35c1.59-0.9,2.79-2.176,3.6-3.825l-2.655-1.261
		c-0.57,1.17-1.395,2.07-2.475,2.701c-1.08,0.629-2.34,0.944-3.78,0.944c-1.38,0-2.64-0.321-3.78-0.968
		c-1.14-0.645-2.055-1.521-2.744-2.633c-0.69-1.109-1.065-2.354-1.125-3.734c-0.03-0.479-0.045-1.05-0.045-1.71v-0.045
		c0-0.51,0.029-0.825,0.09-0.945c0.18-1.199,0.607-2.302,1.282-3.307c0.675-1.005,1.53-1.807,2.565-2.408
		c1.034-0.6,2.151-0.9,3.352-0.9c2.01,0,3.623,0.607,4.838,1.822s1.928,2.828,2.138,4.838h-9.585v0.225
		c0.029,0.57,0.225,1.117,0.585,1.643s1.02,0.787,1.979,0.787h10.125c0.03-0.209,0.045-0.555,0.045-1.035
		c0-2.1-0.39-3.989-1.17-5.67C119.18,21.607,118.032,20.295,116.518,19.35z M124.91,40.117h3.195V7.357h-3.195V40.117z
		 M133.774,40.117h3.195V7.357h-3.195V40.117z M157.399,22.342c-0.57-1.32-1.492-2.385-2.768-3.195
		c-1.275-0.81-2.963-1.215-5.063-1.215c-2.25,0-4.08,0.54-5.49,1.62s-2.385,2.295-2.925,3.645l2.97,0.945
		c0.39-0.99,1.027-1.807,1.913-2.453c0.885-0.645,2.032-0.967,3.442-0.967c1.8,0,3.165,0.435,4.095,1.305s1.396,2.175,1.396,3.915
		v4.771c0,1.949-0.638,3.539-1.913,4.77s-2.873,1.845-4.792,1.845c-1.32,0-2.415-0.337-3.285-1.013
		c-0.87-0.675-1.305-1.598-1.305-2.768c0-1.289,0.524-2.212,1.574-2.768c1.05-0.555,2.28-0.832,3.69-0.832h0.72
		c0.69,0,1.223-0.195,1.598-0.585s0.614-0.78,0.72-1.17s0.158-0.659,0.158-0.81h-3.15c-2.221,0-4.185,0.494-5.895,1.484
		s-2.565,2.551-2.565,4.68v0.271c0,1.83,0.659,3.337,1.98,4.522c1.319,1.186,3.06,1.777,5.22,1.777c3.06,0,5.475-1.38,7.245-4.141
		v0.721c0,0.84,0.299,1.561,0.899,2.16c0.601,0.601,1.32,0.899,2.16,0.899v-13.86c0-0.479-0.053-1.064-0.157-1.755
		C157.767,23.453,157.609,22.853,157.399,22.342z M172.25,18.337c-1.351,0-2.648,0.375-3.893,1.125
		c-1.245,0.75-2.243,1.905-2.992,3.465v-4.275h-3.105v21.465c0.87,0,1.612-0.308,2.228-0.923c0.614-0.614,0.923-1.356,0.923-2.228
		v-7.334c0-2.221,0.532-4.11,1.597-5.67s2.768-2.34,5.108-2.34c0.27,0,0.675,0.03,1.215,0.09v-3.33
		C173.149,18.353,172.79,18.337,172.25,18.337z"/>
</g>
</svg>
